<?xml version="1.0" encoding="UTF-8"?>
<svg version="1.1" viewBox="0 0 2036 2048" width="182" height="183" xmlns="http://www.w3.org/2000/svg">
<path transform="translate(0)" d="m0 0h2036v2048h-2036z" fill="#FCFCFC"/>
<path transform="translate(1e3 458)" d="m0 0h13l1 3 1 94 1 2 28 6 49 10 29 6 24 5 20 6 10 5 7 7 8 7 8 8 9 11 9 10v3l-24 5-41 8-33 6-30 6-7 4-30 30-7 8-11 12-7 8-15 16-8 8-7 8-8 8-7 8-14 14-7 8-10 10-7 8-15 16-13 13-7 8-16 16-7 8-14 14-4 2-6-5-10-13-8-9-13-17-18-22-11-14-9-11-8-10-9-11-14-17-9-11-13-16-8-10-12-14-28-35-9-11-11-13-11-14-28-34-26-32-22-28-13-16-8-10-13-16-9-11-9-10-9-13-2-4 1-4 24 5 76 14 200 39 48 10 28 5 5 2 1 47 5 2 26 11 24 10 3 1-1-2-1-36-1-85v-26z" fill="#FB5218"/>
<path transform="translate(1543,614)" d="m0 0 2 1-10 16-10 12-7 9-13 16-11 14-11 13-14 17-11 14-11 13-9 11-11 13-11 14-8 10-14 17-11 14-7 8-13 17-11 14-11 13-11 14-13 16-10 13-10 11-5 4-13 2h-72l-256-2-37-1-18-1v-4l5-6 8-7 15-16 7-7 1-2h2v-2l22-22 1-2h2l2-4 11-11 7-8 8-8 7-8 37-37 7-8 13-13 7-8 14-15 9-10 11-12h2l2-4 9-8 12-6 26-6 35-6 93-18 84-17 36-7 73-14 58-10 15-4z" fill="#FC5319"/>
<path transform="translate(470,523)" d="m0 0 4 1 13 15 12 13 25 25 5 3-1 5-6 9-8 9-8 10-9 11-12 14-9 11-12 14-9 12-11 14-9 11-12 14-11 14-14 17-11 14-12 14-13 15-11 14-8 10-9 11-11 13-9 11-11 13-10 13-13 17-2 5v7l5 34v11l-26-1-57-4-41-3-23-2 1-4 7-9 13-15 13-16 7-9 8-10 12-14 8-10 11-14 8-10 11-14 10-12 8-10 13-16 9-11 8-10 11-13 9-11 8-10 11-14 8-10 13-16 11-13 7-9 11-14 14-17 9-11 14-17 10-14 22-26 12-16 13-15z" fill="#FC5319"/>
<path transform="translate(311,1050)" d="m0 0h29l20 4 13 5 10 6 13 11 10 14 8 15 4 14 1 7 1 25v39l-1 37-5 23-8 15-8 10-11 11-15 9-17 6-15 3-9 1h-10l-16-2-15-4-16-8-9-6-5-4-7-8-8-11-8-18-4-17-1-8-1-23v-25l1-31 2-19 4-14 5-12 9-14 8-9 13-10 15-7 16-4z" fill="#050202"/>
<path transform="translate(1709,1052)" d="m0 0 11 1-5 9-12 16-8 10-10 13-11 14-10 13-11 14-8 10-2 3h-2l3 9 11 20 14 24 13 21 16 26 12 20 10 16 4 9-1 1h-45l-9-3-4-5-6-11-26-42-15-25-9-16-2-2-4 1-13 16-7 9-1 3-2 71-1 5h-18l-28-1-1-1v-246l1-1h47l1 23 1 79 5-3 9-12 8-10 11-14 9-11 11-13 9-11 13-16 7-8 5-4z" fill="#050202"/>
<path transform="translate(533,1049)" d="m0 0h13l17 2 19 5 14 7 13 10 8 10 6 10 6 20 2 10v8l-3 3-3 1h-39l-3-2-5-21-6-8-10-6-10-4-6-1h-22l-11 4-8 7-4 10v11l4 7 9 8 12 7 14 5 26 9 22 9 13 7 12 9 8 9 5 8 5 14 2 12v8l-6 21-8 14-12 12-13 8-10 5-17 5-6 1h-34l-21-4-16-6-11-7-10-9-8-9-8-16-3-12-1-8v-14l5-1h34l10 2 1 1 1 16 5 10 9 7 10 5 12 3h16l13-3 9-7 6-7 1-3v-14l-3-7-11-9-15-7-21-8-31-13-13-7-12-9-8-7-9-13-4-11-2-9v-15l4-17 7-13 8-10 13-10 12-6 19-5z" fill="#060302"/>
<path transform="translate(897,1049)" d="m0 0 19 1 20 4 13 5 11 7 10 9 10 13 6 13 5 19v10l-3 5-7 2-23 1h-12l-5-2-4-22-3-6-7-7-10-6-6-2-16-1-13 3-8 5-8 7-6 11-1 4-1 56v44l3 16 6 9 7 6 10 5 7 2 11 1 10-2 12-6 10-9 4-8 2-18 4-3 25 1 20 2 2 1v13l-4 17-5 12-8 11-11 12-13 9-9 4-17 4-11 1 3 8 7 12 3 11v12l-3 6-8 9-9 4-11 2h-15l-8-3-6-7-1-6 7-8 16-8 4-3 1-4-2-7-7-8-5-5-8-6-22-9-11-7-8-7-11-14-7-14-3-11-2-20v-63l1-28 3-21 5-13 8-12 10-11 12-9 15-7 16-4z" fill="#060302"/>
<path transform="translate(1033,1052)" d="m0 0h154l12 1v41l-121 2v50l1 7 81 1v15l-1 28-3 1h-78v59h117l3 1 1 3v39l-1 1-86 1h-71l-12-1-1-79v-169z" fill="#070302"/>
<path transform="translate(1583,660)" d="m0 0 4 2 8 9 15 20 13 16 11 14 13 16 10 13 26 32 13 17 12 15 11 14 10 12 13 17 14 17 20 25 13 17 10 14 1 3-13 2-53 4h-26l-6-2 2-9 5-15v-9l-6-11-10-13-14-17-12-14-9-11-11-13-8-10-9-10-9-11-13-15-9-11-11-13-9-11-11-13-8-10-9-11-11-12-1-2 8-6 11-11 11-9 12-9z" fill="#F95218"/>
<path transform="translate(1267,1052)" d="m0 0 16 1 1 1 1 190 1 13h72l49 1v43h-172v-248z" fill="#030202"/>
<path transform="translate(322,1091)" d="m0 0 16 1 11 4 9 7 9 13 3 13 1 17v64l-1 14-3 11-5 9-9 10-10 6-9 3h-17l-10-3-11-8-8-11-4-9-2-9-1-11v-70l2-17 5-12 8-11 10-7 9-3z" fill="#FDFDFD"/>
<path transform="translate(1461,1052)" d="m0 0h26l1 31-1 211-1 7-2 1h-24l-22-1-1-83v-29l1-136z" fill="#050202"/>
<path transform="translate(589,783)" d="m0 0h61l1 5v78h-69l-5-1-1-34v-38l1-9z" fill="#FC5319"/>
<path transform="translate(531,783)" d="m0 0h27l1 32-1 51h-64l-9-1-1-1-1-47v-33z" fill="#FC5319"/>
<path transform="translate(659,1174)" d="m0 0h114l8 1v40l-2 2-57 1h-65l-1-1-1-13v-29z" fill="#0A0402"/>
<path transform="translate(556,688)" d="m0 0h2l1 47v33l-1 1h-57l-15-1-3-1 1-10 8-20 5-9 9-11 13-12 18-11z" fill="#FC5319"/>
<path transform="translate(577,688)" d="m0 0 7 1 16 8 15 10 10 9 8 8 7 10 7 14 4 14v6l-1 1h-72l-1-2-1-17v-59z" fill="#FA5218"/>
<path transform="translate(1275,1403)" d="m0 0h6l6 4 5 7 9 27 10 35 1 8-11-2-4-5-5-8-5-1h-15l-4 2-4 12-1 1-10 1-3-1 2-13 7-26 12-36z" fill="#0D0502"/>
<path transform="translate(1462,828)" d="m0 0h35l12 1 1 3v44l-2 4h-42l-4-1-1-4v-46z" fill="#FC5319"/>
<path transform="translate(694,1405)" d="m0 0h41v9l-2 4-13-1h-13l-9 3-1 2v16l14-2h12l1 1v9l-5 5-5 1-5-2h-10l-2 2-1 8 2 7 5 3 15 1 12-2 4-1 2 2-1 9-5 4-13 2h-17l-11-2-4-4-2-11v-47l2-14z" fill="#100603"/>
<path transform="translate(626,1403)" d="m0 0h11l11 4 8 9 2 6v10l-1 2-5-2-9-11-10-5-9 2-5 5-3 10v16l2 10 5 8 7 5v2l5-3 10-10 11-8 3 3v8l-4 7-11 11-3 5-3 12-5 5h-6l-2-3-2-16-10-9-6-7-4-10v-27l3-13 6-9 8-5z" fill="#0F0503"/>
<path transform="translate(877,1403)" d="m0 0h6l3 2 1 9v15l2 5 7-6 5-6h2l2-4 9-10 10-5 3 1-1 8-5 8-13 13-1 7 4 8 12 18 7 12 1 4-1 1h-9l-8-7-10-15-7-10-6-2-2 6-1 24-2 4-2 1h-8l-1-1v-67l1-11z" fill="#0E0503"/>
<path transform="translate(1518,829)" d="m0 0 44 1v46l-1 4h-41l-1-1-1-16-1-33z" fill="#FC5319"/>
<path transform="translate(982,1404)" d="m0 0h9l5 5 4 11 9 38 3 3 2-5 9-30 6-18 3-4h7l2 2-1 10-8 26-6 21-6 15-4 3-9 1-5-5-3-7 1-3-4-8-7-26-7-27z" fill="#100603"/>
<path transform="translate(1458,983)" d="m0 0h10l8 4 7 8 2 5v12l-6 11-6 4-3 1h-11l-10-3-6-5-3-10v-9l3-8 8-7z" fill="#080302"/>
<path transform="translate(1507,775)" d="m0 0h3v46l-2 1h-23l-17-1-6-3v-6l7-10 6-8 10-10 12-6z" fill="#FC5319"/>
<path transform="translate(1182,1405)" d="m0 0h9l2 5v55l2 4 5 1 28-1 2 7-1 6-1 1-43 1-5-3-2-5v-69z" fill="#100603"/>
<path transform="translate(1113,1403)" d="m0 0 5 2 1 49 2 13 3 3h14l15-1 3 5-1 7-3 2-25 1h-14l-5-2-2-7v-51l1-19z" fill="#0D0502"/>
<path transform="translate(764,1403)" d="m0 0h5l2 2 2 56 2 7 3 2h19l12-1 3 3v6l-5 5-33 1-9-2-4-4-1-3v-70z" fill="#0C0502"/>
<path transform="translate(1517,775)" d="m0 0 6 2 14 8 16 13 5 8 3 10v6h-36l-7-1z" fill="#FC5319"/>
<path transform="translate(840,1404)" d="m0 0 1 2 4 2 2 3v71l-6 2-8-2-1-23v-33l1-17 6-4z" fill="#130703"/>
<path transform="translate(1071,1407)" d="m0 0 5 1 1 2v73h-11l-3-2 1-72z" fill="#060302"/>
<path transform="translate(1278,1423)" d="m0 0 4 4 7 23 1 6-5 2h-11l-3-3 2-11 4-20z" fill="#FDFDFD"/>
<path transform="translate(839,1384)" d="m0 0 5 1 3 4v5l-6 8-4-2-3-5v-7z" fill="#200B04"/>
<path transform="translate(191,1677)" d="m0 0 5 4 9 11 9 10 7 8 9 10 11 12 14 15-1 2-13-13-7-8-15-16-9-11-11-12-8-10z" fill="#B83C12"/>
<path transform="translate(1065,1385)" d="m0 0h10l1 1v8l-2 4-5 1-4-2-1-11z" fill="#160803"/>
<path transform="translate(277,1771)" d="m0 0 4 2 11 11 8 7 16 15 14 12 11 9h-3l-11-9-14-12-16-15-13-12-7-7z" fill="#96310F"/>
<path transform="translate(1744,861)" d="m0 0 5 5 11 13 9 11 7 9-1 2-8-9-9-11-10-13-4-5z" fill="#391307"/>
<path transform="translate(236,1729)" d="m0 0 4 2 15 16-1 2-13-13z" fill="#F55118"/>
<path transform="translate(1762,884)" d="m0 0 3 1 11 14-1 2-8-9-5-6z" fill="#3B1407"/>
<path transform="translate(298,1791)" d="m0 0 4 2 11 10-1 2-14-13z" fill="#6E250B"/>
<path transform="translate(225,1716)" d="m0 0 7 6 5 7-4-2-8-9z" fill="#892D0E"/>
</svg>
